<svg xmlns="http://www.w3.org/2000/svg" width="370" height="153" viewBox="0 0 370 153">
  <style>
    .logo__barbershop {
      display: none;
    }

    @media (min-width: 370px) {
      .logo__barbershop {
        display: block;
      }
    }

    .logo__moustache {
      display: none;
    }

    @media (min-width: 380px) {
      .logo__moustache {
        display: block;
      }
    }
  </style>
  <g class="logo__barbershop">
    <path fill="#fff" d="M119.858 11.427C127.044 8.997 127.59 0 120.508 0c-1.948 0-4.275 1.37-5.883 4.174l-9.58 16.56c-.444.786-.89 1.436-1.368 2.018-2.464-3.387-1.744-8.45 1.71-10.674l-1.437-1.813c-7.458 4.755-5.27 18.475 7.185 18.475 10.64 0 15.566-12.763 8.723-17.313zm-8.792 14.575c-2.12 0-3.8-.48-5.13-1.232.613-.718 1.23-1.607 1.777-2.532L113.7 11.87l.957.104c8.35 1.746 5.03 14.028-3.59 14.028zm3.832-16.217l2.873-4.927c2.602-4.482 5.92-1.847 4.14 1.505-1.367 2.567-3.386 3.353-7.012 3.422z"/><path fill="#fff" d="M259.21 18.954l-.24.274c-1.984 2.326-4.345 4.243-6.5 4.995.58-.924 1.026-1.916 1.47-2.67l3.936-6.738c3.32-5.645-2.053-7.527-5.68-4.276l.72-1.234h-3.56l-5.563 9.655c-.005 0-.01-.003-.012-.005l-.24.274c-1.607 1.744-3.592 2.6-5.37 2.633l3.353-5.78c2.155-3.73.172-7.254-3.182-7.254-2.736 0-4.856 1.094-6.91 4.653l-1.745 3.044-1.452 2.486-.19.217c-2.566 2.977-5.063 5.337-6.638 5.337-.787 0-1.23-.547-.41-1.95l5.132-8.998c1.54-2.704.07-4.654-1.916-4.654-1.538 0-3.182.855-4.96 2.704l5.68-9.888h-3.558l-9.924 17.215-.204.233c-1.3 1.54-2.874 2.908-4.277 3.866 1.13-3.387.892-8.587 3.08-13.137l-2.67-1.44c-1.47 2.02-4.685 6.673-7.902 10.436l-.24.274c-2.564 2.977-5.063 5.337-6.636 5.337-.788 0-1.233-.547-.412-1.95l3.56-6.227c1.23-2.155.648-3.42-.515-4.824l-1.984-2.394c-.515-.65-.515-1.37.203-2.053l-1.847-2.02c-2.02 1.813-2.19 3.832-.924 5.474l.308.41c-1.573 2.224-3.694 5.235-6.02 7.972l-.24.274c-2.565 2.977-5.85 5.337-8.347 5.337-2.19 0-3.49-1.368-1.848-4.242l.342-.616c2.292.957 6.604.51 9.272-4.106l.512-.89c1.916-3.284.068-5.748-2.84-5.748-2.873 0-5.166 1.505-6.672 4.106l-3.447 5.915-.214.244c-1.608 1.78-3.627 2.6-5.372 2.635l3.354-5.78c.89-1.575 1.333-2.943 1.333-4.072 0-1.813-1.23-3.182-3.216-3.182-.855 0-1.61.31-2.328.788l4.518-7.835h-3.627l-9.975 17.234-.187.214c-2.565 2.978-5.062 5.338-6.637 5.338-.786 0-1.23-.547-.41-1.95l3.558-6.227c1.232-2.154.65-3.42-.512-4.823l-1.984-2.394c-.514-.65-.514-1.37.205-2.053L148.36 5.1c-2.02 1.814-2.19 3.833-.925 5.475l.31.41c-1.575 2.224-3.696 5.235-6.022 7.972l-.24.274c-2.565 2.978-5.062 5.338-6.636 5.338-.79 0-1.234-.547-.413-1.95l5.75-10.058h-2.02c.136-1.506-1.403-3.593-3.73-3.593-1.916 0-4.583 1.505-6.09 4.106l-4.994 8.62c-1.507 2.636-.444 5.065 2.43 5.065 1.436 0 3.215-.924 4.926-2.327.17 1.37 1.265 2.328 3.08 2.328 2.94 0 6.327-3.147 9.27-6.57 1.71-1.983 3.045-3.762 5.885-7.628l.48.582c.443.582.614 1.3.204 2.018l-3.765 6.535c-1.504 2.635-.443 5.064 2.43 5.064 2.062 0 4.343-1.55 6.536-3.653v.025c0 2.43 1.814 3.797 4.106 3.797 1.982 0 4.276-1.027 6.056-3.32.27.035.512.035.786.035 1.32 0 3.118-.504 4.725-1.404-.187 2.57 1.676 4.52 4.82 4.52 4.038 0 8.04-3.148 10.982-6.57 1.712-1.984 3.045-3.763 5.885-7.63l.48.583c.443.582.614 1.3.204 2.018l-3.764 6.536c-1.506 2.635-.444 5.064 2.43 5.064 2.942 0 6.33-3.147 9.27-6.57 2.02-2.325 3.8-4.823 5.064-6.5-1.402 3.697-.65 10.334-4.036 10.334-1.197 0-1.678-1.3-1.678-1.3l-2.224 1.164s.65 2.874 3.9 2.874c.342 0 .65-.034.99-.068.037 0 .07-.034.105-.034 1.873-.248 3.736-1.136 5.467-2.364l-1.223 2.124h3.592l5.405-9.408c5.476-6.876 7.904-5.987 6.364-3.353l-4.618 8.04c-1.506 2.634-.445 5.063 2.43 5.063 2.066 0 4.353-1.556 6.55-3.667-.008 4.537 6.294 5.422 10.146.553h.788c1.073 0 2.464-.335 3.81-.945l-6.48 11.242h3.594l10.64-18.51c3.968-5.405 6.467-3.42 5.543-1.812l-5.37 9.306c-.583 1.028-1.918 1.335-2.567 0l-2.02.96s.65 2.873 3.9 2.873h.207c5.166-.103 8.552-3.182 11.46-6.57-.208-.555-.824-1.103-1.338-1.24zm-81.017-4.995c2.053-3.525 5.678-2.943 3.558.75l-.512.89c-1.71 2.91-4.004 2.84-5.337 2.362l2.293-4.003zm-45.605 5.61c-2.156 3.386-4.278 4.995-5.75 4.995-.786 0-1.23-.547-.41-1.95l4.963-8.655c1.916-3.32 5.713-2.463 3.97.752l-2.772 4.858zm26.788 4.858c-.788 0-1.438-.48-1.438-1.37 0-.512.206-1.093.617-1.846l1.266-2.19c.275 1.54.96 2.875 2.26 3.695-.72 1.163-1.814 1.71-2.704 1.71zm3.728-3.456c-.923-.684-1.506-1.778-1.506-3.216 0-2.532 2.465-6.67 4.482-6.67.787 0 1.335.58 1.335 1.54 0 .58-.205 1.3-.685 2.12l-3.626 6.226zm73.08-1.778h-.17c-1.163 0-2.088.958-2.088 2.12 0 .446.137.856.342 1.2l-.034.067c-1.676 2.874-5.747 2.327-3.626-1.368l2.703-4.688 1.71-2.908c2.498-4.242 5.92-2.566 3.765 1.13l-2.6 4.448z"/>
  </g>
  <g class="logo__borodinsky">
    <path fill="#fff" d="M11.436 73.276L5.72 78.99.003 73.275 5.72 67.56zM363.424 73.26l-5.717 5.715-5.715-5.717 5.717-5.715z"/><g fill="#636466"><path d="M46.8 73.48h2.082v-8.324h3.275v-2.084H46.8M61.69 75.01V62.323c0-1.795-1.066-3.325-2.562-4.07.298.603.48 1.27.48 1.987v12.687c0 1.416-.615 2.648-1.662 3.51.924.986 1.662 2.095 1.662 3.695v14.104c0 2.463-2.094 4.557-4.557 4.557H41.49v2.084h15.644c2.463 0 4.557-2.094 4.557-4.557V82.215c0-1.602-.737-2.71-1.66-3.695 1.046-.862 1.66-2.095 1.66-3.51z"/><path d="M46.8 91.34h2.082v-8.385h3.275V80.87H46.8"/><path d="M79.81 91.34h2.083V65.156h3.275v-2.084H79.81"/><path d="M92.14 58.254c.297.602.48 1.27.48 1.986v33.994c0 2.463-2.095 4.557-4.558 4.557H76.978c-.717 0-1.385-.183-1.987-.48.745 1.497 2.275 2.565 4.07 2.565h11.086c2.463 0 4.557-2.094 4.557-4.557V62.324c0-1.795-1.068-3.325-2.564-4.07z"/><path d="M112.82 73.48h2.083v-8.324h3.276v-2.084h-5.36M125.065 82.523c1.6-.74 2.586-2.34 2.586-4.064V62.323c0-1.816-1.06-3.364-2.565-4.098.3.61.483 1.286.483 2.014v16.135c0 1.725-.985 3.325-2.586 4.064l3.08 18.35h-5.66l.352 2.085h7.39l-3.08-18.352zM115.653 80.87h-2.833v17.92h-5.306v2.085h7.39v-17.92h1.1"/><path d="M144.848 91.34h2.083V65.156h3.276v-2.084h-5.358"/><path d="M157.177 58.254c.298.602.48 1.27.48 1.986v33.994c0 2.463-2.094 4.557-4.557 4.557h-11.086c-.716 0-1.384-.183-1.985-.48.742 1.497 2.272 2.565 4.067 2.565h11.086c2.463 0 4.557-2.094 4.557-4.557V62.324c0-1.795-1.067-3.325-2.563-4.07z"/><path d="M177.858 91.34h2.083V65.156h3.277v-2.084h-5.36"/><path d="M190.188 58.254c.298.602.48 1.27.48 1.986v33.994c0 2.463-2.094 4.557-4.557 4.557h-13.56v2.085h15.644c2.463 0 4.557-2.094 4.557-4.557V62.324c0-1.795-1.066-3.325-2.562-4.07z"/><path d="M211.24 57.766V98.79h-5.307v2.085h7.39v-43.11"/><path d="M244.126 57.766V98.79h-5.906l.6 2.085h7.39v-43.11M231.316 79.947V98.79h-5.306v2.085h7.39V87.19"/><path d="M263.578 82.955h6.107V80.87h-8.19c-.722 0-1.394-.18-1.998-.476.74 1.514 2.277 2.56 4.08 2.56zM266.41 85.725l-2.083.486v5.13h2.083M276.656 58.254c.298.602.48 1.27.48 1.986v8.744l-5.368 1.243v2.565l7.45-1.725v-8.744c.002-1.794-1.066-3.324-2.562-4.07z"/><path d="M276.656 76.052c.298.602.48 1.27.48 1.985v16.197c0 2.463-2.094 4.557-4.557 4.557h-11.086c-.717 0-1.385-.183-1.987-.48.744 1.497 2.274 2.565 4.07 2.565h11.085c2.463 0 4.557-2.094 4.557-4.557V80.12c0-1.794-1.067-3.324-2.564-4.068zM264.327 63.072V73.48h2.083v-8.324h3.276v-2.084"/><path d="M298.017 80.87h-.678v17.92h-5.308v2.085h7.39V85.352M313.155 57.766h-2.752l-6.228 19.41 6.897 21.615h-6.006l.577 1.84.06.245h7.452l-6.897-21.615"/><path d="M330.535 57.766V98.79h-5.306v2.085h7.388v-43.11"/><path d="M361.66 82.938l5.716-5.717 2.084 2.084-5.715 5.717zM9.674 82.953l5.717-5.717 2.085 2.084-5.717 5.717z"/></g><path fill="#fff" d="M55.65 68.967c0 1.416-.616 2.648-1.663 3.51.924.986 1.662 2.095 1.662 3.695v14.103c0 2.463-2.095 4.557-4.558 4.557H35.45V51.724h15.643c2.463 0 4.557 2.032 4.557 4.558v12.685zm-7.452-9.853H42.84v10.408h5.358V59.114zm0 17.798H42.84v10.47h5.358V76.91zM84.104 51.724c2.463 0 4.557 2.032 4.557 4.558v33.994c0 2.463-2.093 4.557-4.556 4.557H73.02c-2.526 0-4.56-2.094-4.56-4.557V56.282c0-2.525 2.033-4.558 4.56-4.558h11.084zm-2.895 7.39h-5.36V87.38h5.36V59.115zM114.712 94.832l-3.018-17.92h-2.833v17.92h-7.39V51.724h15.644c2.463 0 4.495 2.032 4.495 4.558v16.135c0 1.725-.986 3.325-2.587 4.064l3.08 18.352h-7.39zm-.492-35.718h-5.358v10.408h5.358V59.114zM149.142 51.724c2.463 0 4.557 2.032 4.557 4.558v33.994c0 2.463-2.095 4.557-4.558 4.557h-11.086c-2.524 0-4.557-2.094-4.557-4.557V56.282c0-2.525 2.03-4.558 4.556-4.558h11.086zm-2.895 7.39h-5.358V87.38h5.357V59.115zM182.152 51.724c2.463 0 4.557 2.032 4.557 4.558v33.994c0 2.463-2.095 4.557-4.558 4.557H166.51v-43.11h15.642zm-2.894 7.39H173.9V87.38h5.358V59.115zM199.89 51.724h7.39v43.108h-7.39V51.724zM240.167 51.724v43.108h-7.39l-5.42-18.843V94.83h-7.39V51.724h7.328l5.42 17.675V51.723h7.452zM268.62 69.522c2.464 0 4.558 2.032 4.558 4.557v16.196c0 2.463-2.094 4.557-4.557 4.557h-11.084c-2.525 0-4.558-2.094-4.558-4.557V81.41l7.39-1.726v7.697h5.358V76.913h-8.19c-2.525 0-4.558-2.033-4.558-4.558V56.282c0-2.525 2.032-4.558 4.558-4.558h11.085c2.464 0 4.558 2.032 4.558 4.558v8.744l-7.45 1.725v-7.636h-5.36v10.408h8.253zM300.216 73.217l6.897 21.615h-7.45l-.063-.246-5.543-17.674h-.678v17.92h-7.39V51.724h7.39v17.798h.554l5.666-17.798h7.513l-6.897 21.493zM319.187 51.724h7.39v43.108h-7.39V51.724z"/>
  </g>
  <g class="logo__moustache">
    <path fill="#fff" d="M167.898 123.846h1.41c5.428.278 9.685 1.728 12.392 4.724 2.738-2.987 6.994-4.458 12.455-4.724h1.35c12.106.823 17.63 9.496 27.3 13.19 1.42.54 3.22 1.15 4.787.982 2.475-.27 4.06-2.78 3.74-5.583-.34-3.016-3.275-5.61-6.563-4.173-.484.21-.842.51-1.166.798-.254.226-.534.826-1.166.613-.598-.496.044-1.227.307-1.655 1.134-1.855 2.91-3.233 6.074-3.007 5.63.405 10.674 5.338 9.814 12.823-1.92 11.21-12.11 14.15-24.172 15.215h-3.927c-12.528-.744-21.43-5.114-28.773-11.043-7.464 5.85-16.29 10.334-28.896 11.043H149c-12.158-1.072-22.444-4.017-24.232-15.46-.675-8.16 4.185-12.173 9.816-12.577 3.128-.224 5.022 1.147 6.135 3.008.277.464.802 1.166.306 1.717-.61.11-.908-.37-1.165-.613-.698-.664-1.493-1.18-2.82-1.228-3.863-.14-6.077 4.154-4.54 7.608.524 1.18 1.797 2.363 3.373 2.516 1.568.15 3.36-.46 4.786-.982 1.48-.545 2.744-1.245 3.864-1.9 7.368-4.323 13.112-10.374 23.374-11.29z"/>
  </g>
</svg>
